<svg width="208" height="47" viewBox="0 0 208 47" fill="none" xmlns="http://www.w3.org/2000/svg">
<path d="M188.698 0.639999H207.898V7.04H195.738V18.88H205.402V25.28H195.738V39.04H207.898V45.44H188.698V0.639999Z" fill="#FF00FF"/>
<path d="M164.01 0.639999H174.379C177.877 0.639999 180.501 1.57867 182.25 3.456C184 5.33333 184.875 8.08533 184.875 11.712V16.128C184.875 19.7547 184 22.5067 182.25 24.384C180.501 26.2613 177.877 27.2 174.379 27.2H171.051V45.44H164.01V0.639999ZM174.379 20.8C175.531 20.8 176.384 20.48 176.939 19.84C177.536 19.2 177.834 18.112 177.834 16.576V11.264C177.834 9.728 177.536 8.64 176.939 8C176.384 7.36 175.531 7.04 174.379 7.04H171.051V20.8H174.379Z" fill="#FF00FF"/>
<path d="M148.562 46.08C145.106 46.08 142.46 45.0987 140.625 43.136C138.791 41.1733 137.873 38.4 137.873 34.816V11.264C137.873 7.68 138.791 4.90667 140.625 2.944C142.46 0.981333 145.106 0 148.562 0C152.018 0 154.663 0.981333 156.497 2.944C158.332 4.90667 159.25 7.68 159.25 11.264V34.816C159.25 38.4 158.332 41.1733 156.497 43.136C154.663 45.0987 152.018 46.08 148.562 46.08ZM148.562 39.68C150.994 39.68 152.209 38.208 152.209 35.264V10.816C152.209 7.872 150.994 6.4 148.562 6.4C146.13 6.4 144.914 7.872 144.914 10.816V35.264C144.914 38.208 146.13 39.68 148.562 39.68Z" fill="#FF00FF"/>
<path d="M123.68 46.08C120.31 46.08 117.729 45.12 115.937 43.2C114.187 41.28 113.313 38.5707 113.313 35.072V11.008C113.313 7.50933 114.187 4.8 115.937 2.88C117.729 0.96 120.31 0 123.68 0C127.051 0 129.611 0.96 131.36 2.88C133.152 4.8 134.049 7.50933 134.049 11.008V15.744H127.392V10.56C127.392 7.78667 126.219 6.4 123.872 6.4C121.526 6.4 120.353 7.78667 120.353 10.56V35.584C120.353 38.3147 121.526 39.68 123.872 39.68C126.219 39.68 127.392 38.3147 127.392 35.584V28.736H134.049V35.072C134.049 38.5707 133.152 41.28 131.36 43.2C129.611 45.12 127.051 46.08 123.68 46.08Z" fill="#FF00FF"/>
<path d="M99.1 46.08C95.6867 46.08 93.1053 45.12 91.356 43.2C89.6067 41.2373 88.732 38.4427 88.732 34.816V32.256H95.388V35.328C95.388 38.2293 96.604 39.68 99.036 39.68C100.231 39.68 101.127 39.3387 101.724 38.656C102.364 37.9307 102.684 36.7787 102.684 35.2C102.684 33.3227 102.257 31.68 101.404 30.272C100.551 28.8213 98.972 27.0933 96.668 25.088C93.7667 22.528 91.74 20.224 90.588 18.176C89.436 16.0853 88.86 13.7387 88.86 11.136C88.86 7.59467 89.756 4.864 91.548 2.944C93.34 0.981333 95.9427 0 99.356 0C102.727 0 105.265 0.981333 106.972 2.944C108.721 4.864 109.596 7.63733 109.596 11.264V13.12H102.94V10.816C102.94 9.28 102.641 8.17067 102.044 7.488C101.447 6.76267 100.572 6.4 99.42 6.4C97.0733 6.4 95.9 7.82933 95.9 10.688C95.9 12.3093 96.3267 13.824 97.18 15.232C98.076 16.64 99.676 18.3467 101.98 20.352C104.924 22.912 106.951 25.2373 108.06 27.328C109.169 29.4187 109.724 31.872 109.724 34.688C109.724 38.3573 108.807 41.1733 106.972 43.136C105.18 45.0987 102.556 46.08 99.1 46.08Z" fill="#FF00FF"/>
<path d="M66.573 0.639999H85.773V7.04H73.613V18.88H83.277V25.28H73.613V39.04H85.773V45.44H66.573V0.639999Z" fill="#FF00FF"/>
<path d="M39.2605 0.639999H48.0925L54.9405 27.456H55.0685V0.639999H61.3405V45.44H54.1085L45.6605 12.736H45.5325V45.44H39.2605V0.639999Z" fill="#FF00FF"/>
<path d="M26.948 0.639999H33.988V45.44H26.948V0.639999Z" fill="#FF00FF"/>
<path d="M12.368 46.08C8.99733 46.08 6.416 45.12 4.624 43.2C2.87467 41.28 2 38.5707 2 35.072V11.008C2 7.50933 2.87467 4.8 4.624 2.88C6.416 0.96 8.99733 0 12.368 0C15.7387 0 18.2987 0.96 20.048 2.88C21.84 4.8 22.736 7.50933 22.736 11.008V15.744H16.08V10.56C16.08 7.78667 14.9067 6.4 12.56 6.4C10.2133 6.4 9.04 7.78667 9.04 10.56V35.584C9.04 38.3147 10.2133 39.68 12.56 39.68C14.9067 39.68 16.08 38.3147 16.08 35.584V28.736H22.736V35.072C22.736 38.5707 21.84 41.28 20.048 43.2C18.2987 45.12 15.7387 46.08 12.368 46.08Z" fill="#FF00FF"/>
<path d="M186.698 0.639999H205.898V7.04H193.738V18.88H203.402V25.28H193.738V39.04H205.898V45.44H186.698V0.639999Z" fill="#00FFFF"/>
<path d="M162.01 0.639999H172.379C175.877 0.639999 178.501 1.57867 180.25 3.456C182 5.33333 182.875 8.08533 182.875 11.712V16.128C182.875 19.7547 182 22.5067 180.25 24.384C178.501 26.2613 175.877 27.2 172.379 27.2H169.051V45.44H162.01V0.639999ZM172.379 20.8C173.531 20.8 174.384 20.48 174.939 19.84C175.536 19.2 175.834 18.112 175.834 16.576V11.264C175.834 9.728 175.536 8.64 174.939 8C174.384 7.36 173.531 7.04 172.379 7.04H169.051V20.8H172.379Z" fill="#00FFFF"/>
<path d="M146.562 46.08C143.106 46.08 140.46 45.0987 138.625 43.136C136.791 41.1733 135.873 38.4 135.873 34.816V11.264C135.873 7.68 136.791 4.90667 138.625 2.944C140.46 0.981333 143.106 0 146.562 0C150.018 0 152.663 0.981333 154.497 2.944C156.332 4.90667 157.25 7.68 157.25 11.264V34.816C157.25 38.4 156.332 41.1733 154.497 43.136C152.663 45.0987 150.018 46.08 146.562 46.08ZM146.562 39.68C148.994 39.68 150.209 38.208 150.209 35.264V10.816C150.209 7.872 148.994 6.4 146.562 6.4C144.13 6.4 142.914 7.872 142.914 10.816V35.264C142.914 38.208 144.13 39.68 146.562 39.68Z" fill="#00FFFF"/>
<path d="M121.68 46.08C118.31 46.08 115.729 45.12 113.937 43.2C112.187 41.28 111.313 38.5707 111.313 35.072V11.008C111.313 7.50933 112.187 4.8 113.937 2.88C115.729 0.96 118.31 0 121.68 0C125.051 0 127.611 0.96 129.36 2.88C131.152 4.8 132.049 7.50933 132.049 11.008V15.744H125.392V10.56C125.392 7.78667 124.219 6.4 121.872 6.4C119.526 6.4 118.353 7.78667 118.353 10.56V35.584C118.353 38.3147 119.526 39.68 121.872 39.68C124.219 39.68 125.392 38.3147 125.392 35.584V28.736H132.049V35.072C132.049 38.5707 131.152 41.28 129.36 43.2C127.611 45.12 125.051 46.08 121.68 46.08Z" fill="#00FFFF"/>
<path d="M97.1 46.08C93.6867 46.08 91.1053 45.12 89.356 43.2C87.6067 41.2373 86.732 38.4427 86.732 34.816V32.256H93.388V35.328C93.388 38.2293 94.604 39.68 97.036 39.68C98.2307 39.68 99.1267 39.3387 99.724 38.656C100.364 37.9307 100.684 36.7787 100.684 35.2C100.684 33.3227 100.257 31.68 99.404 30.272C98.5507 28.8213 96.972 27.0933 94.668 25.088C91.7667 22.528 89.74 20.224 88.588 18.176C87.436 16.0853 86.86 13.7387 86.86 11.136C86.86 7.59467 87.756 4.864 89.548 2.944C91.34 0.981333 93.9427 0 97.356 0C100.727 0 103.265 0.981333 104.972 2.944C106.721 4.864 107.596 7.63733 107.596 11.264V13.12H100.94V10.816C100.94 9.28 100.641 8.17067 100.044 7.488C99.4467 6.76267 98.572 6.4 97.42 6.4C95.0733 6.4 93.9 7.82933 93.9 10.688C93.9 12.3093 94.3267 13.824 95.18 15.232C96.076 16.64 97.676 18.3467 99.98 20.352C102.924 22.912 104.951 25.2373 106.06 27.328C107.169 29.4187 107.724 31.872 107.724 34.688C107.724 38.3573 106.807 41.1733 104.972 43.136C103.18 45.0987 100.556 46.08 97.1 46.08Z" fill="#00FFFF"/>
<path d="M64.573 0.639999H83.773V7.04H71.613V18.88H81.277V25.28H71.613V39.04H83.773V45.44H64.573V0.639999Z" fill="#00FFFF"/>
<path d="M37.2605 0.639999H46.0925L52.9405 27.456H53.0685V0.639999H59.3405V45.44H52.1085L43.6605 12.736H43.5325V45.44H37.2605V0.639999Z" fill="#00FFFF"/>
<path d="M24.948 0.639999H31.988V45.44H24.948V0.639999Z" fill="#00FFFF"/>
<path d="M10.368 46.08C6.99733 46.08 4.416 45.12 2.624 43.2C0.874667 41.28 0 38.5707 0 35.072V11.008C0 7.50933 0.874667 4.8 2.624 2.88C4.416 0.96 6.99733 0 10.368 0C13.7387 0 16.2987 0.96 18.048 2.88C19.84 4.8 20.736 7.50933 20.736 11.008V15.744H14.08V10.56C14.08 7.78667 12.9067 6.4 10.56 6.4C8.21333 6.4 7.04 7.78667 7.04 10.56V35.584C7.04 38.3147 8.21333 39.68 10.56 39.68C12.9067 39.68 14.08 38.3147 14.08 35.584V28.736H20.736V35.072C20.736 38.5707 19.84 41.28 18.048 43.2C16.2987 45.12 13.7387 46.08 10.368 46.08Z" fill="#00FFFF"/>
<path d="M187.698 0.639999H206.898V7.04H194.738V18.88H204.402V25.28H194.738V39.04H206.898V45.44H187.698V0.639999Z" fill="#CA0812"/>
<path d="M163.01 0.639999H173.379C176.877 0.639999 179.501 1.57867 181.25 3.456C183 5.33333 183.875 8.08533 183.875 11.712V16.128C183.875 19.7547 183 22.5067 181.25 24.384C179.501 26.2613 176.877 27.2 173.379 27.2H170.051V45.44H163.01V0.639999ZM173.379 20.8C174.531 20.8 175.384 20.48 175.939 19.84C176.536 19.2 176.834 18.112 176.834 16.576V11.264C176.834 9.728 176.536 8.64 175.939 8C175.384 7.36 174.531 7.04 173.379 7.04H170.051V20.8H173.379Z" fill="#CA0812"/>
<path d="M147.562 46.08C144.106 46.08 141.46 45.0987 139.625 43.136C137.791 41.1733 136.873 38.4 136.873 34.816V11.264C136.873 7.68 137.791 4.90667 139.625 2.944C141.46 0.981333 144.106 0 147.562 0C151.018 0 153.663 0.981333 155.497 2.944C157.332 4.90667 158.25 7.68 158.25 11.264V34.816C158.25 38.4 157.332 41.1733 155.497 43.136C153.663 45.0987 151.018 46.08 147.562 46.08ZM147.562 39.68C149.994 39.68 151.209 38.208 151.209 35.264V10.816C151.209 7.872 149.994 6.4 147.562 6.4C145.13 6.4 143.914 7.872 143.914 10.816V35.264C143.914 38.208 145.13 39.68 147.562 39.68Z" fill="#CA0812"/>
<path d="M122.68 46.08C119.31 46.08 116.729 45.12 114.937 43.2C113.187 41.28 112.313 38.5707 112.313 35.072V11.008C112.313 7.50933 113.187 4.8 114.937 2.88C116.729 0.96 119.31 0 122.68 0C126.051 0 128.611 0.96 130.36 2.88C132.152 4.8 133.049 7.50933 133.049 11.008V15.744H126.392V10.56C126.392 7.78667 125.219 6.4 122.872 6.4C120.526 6.4 119.353 7.78667 119.353 10.56V35.584C119.353 38.3147 120.526 39.68 122.872 39.68C125.219 39.68 126.392 38.3147 126.392 35.584V28.736H133.049V35.072C133.049 38.5707 132.152 41.28 130.36 43.2C128.611 45.12 126.051 46.08 122.68 46.08Z" fill="#CA0812"/>
<path d="M98.1 46.08C94.6867 46.08 92.1053 45.12 90.356 43.2C88.6067 41.2373 87.732 38.4427 87.732 34.816V32.256H94.388V35.328C94.388 38.2293 95.604 39.68 98.036 39.68C99.2307 39.68 100.127 39.3387 100.724 38.656C101.364 37.9307 101.684 36.7787 101.684 35.2C101.684 33.3227 101.257 31.68 100.404 30.272C99.5507 28.8213 97.972 27.0933 95.668 25.088C92.7667 22.528 90.74 20.224 89.588 18.176C88.436 16.0853 87.86 13.7387 87.86 11.136C87.86 7.59467 88.756 4.864 90.548 2.944C92.34 0.981333 94.9427 0 98.356 0C101.727 0 104.265 0.981333 105.972 2.944C107.721 4.864 108.596 7.63733 108.596 11.264V13.12H101.94V10.816C101.94 9.28 101.641 8.17067 101.044 7.488C100.447 6.76267 99.572 6.4 98.42 6.4C96.0733 6.4 94.9 7.82933 94.9 10.688C94.9 12.3093 95.3267 13.824 96.18 15.232C97.076 16.64 98.676 18.3467 100.98 20.352C103.924 22.912 105.951 25.2373 107.06 27.328C108.169 29.4187 108.724 31.872 108.724 34.688C108.724 38.3573 107.807 41.1733 105.972 43.136C104.18 45.0987 101.556 46.08 98.1 46.08Z" fill="#CA0812"/>
<path d="M65.573 0.639999H84.773V7.04H72.613V18.88H82.277V25.28H72.613V39.04H84.773V45.44H65.573V0.639999Z" fill="#CA0812"/>
<path d="M38.2605 0.639999H47.0925L53.9405 27.456H54.0685V0.639999H60.3405V45.44H53.1085L44.6605 12.736H44.5325V45.44H38.2605V0.639999Z" fill="#CA0812"/>
<path d="M25.948 0.639999H32.988V45.44H25.948V0.639999Z" fill="#CA0812"/>
<path d="M11.368 46.08C7.99733 46.08 5.416 45.12 3.624 43.2C1.87467 41.28 1 38.5707 1 35.072V11.008C1 7.50933 1.87467 4.8 3.624 2.88C5.416 0.96 7.99733 0 11.368 0C14.7387 0 17.2987 0.96 19.048 2.88C20.84 4.8 21.736 7.50933 21.736 11.008V15.744H15.08V10.56C15.08 7.78667 13.9067 6.4 11.56 6.4C9.21333 6.4 8.04 7.78667 8.04 10.56V35.584C8.04 38.3147 9.21333 39.68 11.56 39.68C13.9067 39.68 15.08 38.3147 15.08 35.584V28.736H21.736V35.072C21.736 38.5707 20.84 41.28 19.048 43.2C17.2987 45.12 14.7387 46.08 11.368 46.08Z" fill="#CA0812"/>
</svg>
