<svg width="367" height="511.499" xmlns="http://www.w3.org/2000/svg" shape-rendering="geometricPrecision" text-rendering="geometricPrecision" image-rendering="optimizeQuality" fill-rule="evenodd" clip-rule="evenodd">
 <g>
  <title>Layer 1</title>
  <path fill="#db0000" fill-rule="nonzero" d="m52.353,1l249.874,0c35.575,0 64.773,29.198 64.773,64.776l0,431.621c0,12.92 -15.054,19.684 -24.765,11.601l-158.835,-123.617l-159.032,123.873c-9.585,7.482 -23.928,1.008 -24.308,-11.389l-0.06,-0.468l0,-444.044c0,-28.81 23.543,-52.353 52.353,-52.353z" id="svg_1"/>
  <path fill="#db0000" d="m53.353,14.106l249.874,0c27.324,0 49.669,22.411 49.669,49.669l0,431.623l-168.461,-131.119l-168.328,131.119l0,-444.046c0,-20.489 16.757,-37.246 37.246,-37.246z" id="svg_2"/>
  <path fill="#ffffff" fill-rule="nonzero" d="m227.096,33.879c25.127,0 64.273,-3.551 83.926,9.562c23.24,15.52 23.183,51.543 23.183,76.451l0,38.061l-14.514,-35.198c-4.744,-11.506 -19.236,-50.632 -25.924,-56.29c-6.463,-5.469 -56.253,-14.76 -68.441,-17.717l-61.29,-14.869l63.06,0z" id="svg_3"/>
 </g>

</svg>